<svg id="Graphic_elements" data-name="Graphic elements" xmlns="http://www.w3.org/2000/svg" viewBox="0 0 1200 1200"><path id="path4217" d="M476.52,1149.56c-18-1.11-29.19-3-37.94-6.3-9.64-3.66-11-5.42-16.91-21.24-3.31-8.94-2.64-28.62,1.58-46.32,1.9-7.91,3.37-16.21,3.28-18.44-1.59-40.75,23.67-84.16,63.23-108.63l11.52-7.13-8.48-20.83c-4.67-11.45-13.41-32.37-19.43-46.49-12.48-29.27-22.51-54.76-27.45-69.78-1.87-5.68-3.78-10.32-4.24-10.31s-3.85.82-7.55,1.8-17.21,3.81-30,6.27c-79.09,15.21-91.56,18.32-111.17,27.68-17.72,8.47-18.52,14.42-5.41,40,13.33,26,11,30.67-15.34,30.67-21.48,0-28.48,3.3-31.73,15-4.24,15.26-6,19.38-10.27,24.11-20.59,22.8-78,19.67-96.72-5.27-26.88-35.78-1.3-108.64,61.24-174.44,21-22.07,106.52-57,186.56-76.08l22.25-5.32-12.85-5.24c-92-37.51-156.71-121-183.73-237.1-21.29-91.46,1.93-213.67,49.79-262.11,53.2-53.82,158.08-105,241.1-117.6,39.19-6,45-6.44,76.35-6.37,96.41.2,175.34,51.21,232.14,150.05,54.86,95.44,60.34,245.74,12.52,343.36-9.41,19.2-11.15,18.09,12.33,7.84,94.64-41.3,114.45-88.08,70-165.36-17.22-30-13.37-46.17,10.57-44.53,12.27.84,15.51-1.58,17.69-13.23.68-3.62,2.08-11.09,3.12-16.6,5.77-30.74,16.48-39.4,48.76-39.42,45.47,0,74.42,12.63,86.49,37.82,30.08,62.83-16.69,251.15-79.77,321.11C974.67,645.88,861.71,710.79,833,720.17c-4.65,1.52-8.45,3.13-8.45,3.6s2.73,7.31,6.08,15.23c10.63,25.17,20.46,57.69,22.25,73.61,1.22,10.83,3.17,13.63,12.1,17.42,83,35.13,135.72,89.68,153.45,158.67,2.35,9.16,3.24,10.72,10.42,18.31,57.28,60.51-10.65,132.91-88.35,94.18-20-10-30.61-20-34.83-33-1.78-5.46-2-5.64-7.37-6Q856,1059.7,838,1033.1C822,1009.68,796.79,1000,751.89,1000c-59.18,0-92.08,29.72-81.17,73.18,13.58,54.08,2.14,68.36-57.13,71.33-15.15.76-28.67,1.62-30,1.91-11.42,2.4-84.36,4.53-107,3.12Zm16.27-11.27c35.66-2.63,96.52-10.69,142.57-18.89,25.25-4.5,25.38-4.58,20-13.27l-2.65-4.3L650,1104.3c-3.4,3.14-10.92,5.18-19.12,5.19-18.72,0-149.17,16.52-168.16,21.28-13.82,3.45-15.29,4-14.1,5.19,3.27,3.27,19.66,4.13,44.14,2.33Zm90.19-1.22c14.76-1.35,35-3.06,45-3.79,24.49-1.79,33.79-4.77,33.79-10.85,0-2.18.48-2.22-20.9,2-17.84,3.54-55.58,9.49-83,13.08-20.26,2.67-5.94,2.41,25.1-.44Zm-139.57-5c6-6,58.41-14.71,150.14-25.09,52.17-5.89,52.82-6,53.65-8.16,4.95-12.89-61.82-10.33-181.78,7-14,2-26,3.68-26.66,3.68-1.81,0-4.79,8.18-4.79,13.15,0,6.37,6.24,12.61,9.45,9.45Zm11.31-49.78c58.17-30.57,166.76-24.85,201.72,10.63l7.84,8,0-6c-.24-64.65-92.22-106.81-174-79.73-38.4,12.72-55.87,35.84-60.81,80.43l-.88,8,8-8a78.56,78.56,0,0,1,18.08-13.26Zm26.81,14.7c58.06-9.11,101.66-13.8,128.26-13.8,14.38,0,14.5-.37,1.19-3.81-55.4-14.29-143.55-3.26-165.75,20.74l-3.13,3.39,3.75-.76c2.07-.41,18.12-3,35.68-5.76Zm527.34.23c9.28-3.35,17.12-9,25.09-18.16l6.33-7.26-.1-13.39c-.11-15.4-2.39-23.44-9.85-34.67-6.42-9.69-6.45-9.66-7,6-1.44,37.18-22.47,45.65-91.35,36.75-18.63-2.41-17.33-2.34-17.33-.93,0,20.65,64.61,42.37,94.25,31.68Zm-11.67-39.16c13.33-4.1,18.5-15,17.13-36.11-1.2-18.38-1.36-18.66-7.19-12.66-18.73,19.31-54.3,19.94-71.76,1.29l-5.83-6.24-7.78,3.9c-11.35,5.7-27.34,16.35-40.84,27.21L869.08,1045l11.45,2.72c36.93,8.79,102.75,14.63,116.67,10.36Zm-339.14-34.78c-2.69-33.45-10.09-53.94-24.91-69-53-53.81-179-3-193.64,78.07l-.88,4.87,7.45-7.45c48.21-48.21,161-41.66,207.09,12,6.84,8,7,7.4,4.9-18.52Zm212.57,12.58a236.29,236.29,0,0,1,47.57-32.07c7.32-3.69,9-5,8.26-6.73-14.38-34.51,3.7-74.13,37-81l6.88-1.42-8.13-8.48c-23.14-24.13-61.38-50.78-72.83-50.78-24.62,0-64.75,33.88-80.47,67.93-10,21.73-18.65,69.77-12.84,71.58l10.32,3.19c21.52,6.64,32.65,14.49,37,26.07,6.42,17.22,16,21.34,27.33,11.71Zm-195.74-18.25c17.12-21.57,63.69-33.17,104.47-26,9.77,1.72,8.57,3.19,10.11-12.39,5.17-52.23,23.2-85.73,61.21-113.71,12.84-9.45,16.14-11.23,25.75-13.9l7.5-2.09-4-2c-2.18-1.12-9.2-4.35-15.61-7.17l-11.64-5.12-6.89,7.92c-41.15,47.35-67.08,64.1-148.49,95.9-15.89,6.21-33.14,13.06-38.32,15.21l-9.42,3.93,4.11,7.77c7.13,13.49,11.32,29.54,13.77,52.67.42,4,1.18,6.85,1.67,6.26s3.08-3.84,5.75-7.2Zm309.83-1.51c13.26-3.94,24.72-15,23.18-22.42a84.43,84.43,0,0,1-1.16-10c-.81-13.68-16.48-45.33-28.51-57.58-16.05-16.34-48.93,10.85-50.78,42-2.19,36.92,23.13,58.14,57.27,48ZM682.43,934.7c78.64-31,100.48-42.75,128.67-69.24l7.6-7.14L805.46,829c-22.65-50.13-41.69-95.91-51.73-124.41-10.35-29.39-31.94-28.59-134.51,4.94-23.55,7.7-32.46,10-54.44,13.74-53.9,9.28-60.45,11.25-63,18.88-4.17,12.43,3.9,55.12,18,95.2,13.7,38.95,19.14,56.44,22.29,71.72,3.8,18.41,2.67,16.91,11.56,15.27,29.63-5.48,65,2.95,83.38,19.84l6.63,6.11,4.38-1.87c2.41-1,17.9-7.2,34.42-13.71Zm-12.47-37c-2.55-6.41-11.42-27.66-19.7-47.24s-15.81-37.76-16.74-40.4-2.49-6.61-3.46-8.83c-25.1-57.46-24.44-58.35,58.63-78,4.13-1,13.58-3.53,21-5.68s13.7-3.69,14-3.42c.58.6,22.83,58.39,35.31,91.73a436.69,436.69,0,0,0,18.88,43.09l9.55,18.19-4.75,4.1c-9.59,8.29-72.88,31-104.12,37.35l-3.91.79L670,897.72ZM689,903.18c3.93-1.95,10.68-4.84,15-6.41a68.69,68.69,0,0,0,7.82-3.15c0-.15-4.67-10.08-10.39-22.06s-11.2-23.6-12.2-25.83l-1.82-4.05-14.08,6.4c-16.46,7.47-15.81,5.3-7.39,24.92,3.67,8.57,8.27,19.66,10.21,24.65,4.05,10.43,3.47,10.18,12.86,5.53ZM734,886.05l14-4.82L746.32,878c-.91-1.78-6.56-13.92-12.57-27s-11-23.92-11.19-24.09-6.53,2.4-14.18,5.7l-13.9,6,11.36,26.6c6.41,15,12,26.39,12.75,26.12L734,886Zm29.17-10.61c19.43-8,19.6-8.29,11.94-20.12-7.47-11.54-9.76-16.2-15.18-30.78-2.52-6.78-4.7-12.46-4.84-12.64s-6.24,2.51-13.56,6l-13.29,6.27,2.29,5.31c9,20.87,22.44,49.76,23.16,49.76.22,0,4.49-1.69,9.49-3.75Zm-91.62-32.78c7.76-3.58,13.87-7.11,13.56-7.84s-4.88-12.13-10.16-25.36l-9.61-24L657,788.59l-14.91,5.67c-8.14,3.09-8.22,1.79,1.64,25.64l10.15,24.56c2.39,5.79.87,5.95,17.67-1.8ZM707,827.12l13.4-5.76L716,811.16c-2.4-5.61-7-16.4-10.15-24s-6-14-6.16-14.29c-.47-.64-25.6,8.65-27.18,10.05-.65.58,2.19,8.84,6.73,19.52,4.33,10.18,9,21.19,10.37,24.46,3,7.17,1.17,7.15,17.37.19Zm41.39-18.76L753,806l-8.62-22.36c-4.74-12.29-8.9-22.63-9.24-23-.84-.85-28.11,8.31-29,9.74-.39.63,3.9,11.8,9.52,24.83l10.23,23.7,8.92-4.08c4.91-2.24,11-5.15,13.56-6.47ZM648.9,785.79l14-5.8L661,775.46c-5.18-12.46-16-35.21-16.72-35.21-9.72,0-23.86,10.16-23.86,17.14,0,5,11.21,34.16,13.15,34.18.68,0,7.56-2.6,15.28-5.79Zm35.39-14c6.54-2.46,12.11-4.63,12.36-4.82,1.28-.94-14.13-35.5-15.82-35.5-3.55,0-30.38,6.72-30.05,7.53,8.09,19.23,18.17,38.64,19.75,38,1-.41,7.22-2.76,13.76-5.22Zm35.05-12.73c8.69-3.18,13-5.38,12.8-6.5-1-4.77-11.49-31.74-12.38-31.72-4,.06-31.69,8.85-31.27,9.92,8.59,21.65,14.09,33.23,15.76,33.17,1.07,0,7.86-2.23,15.09-4.87ZM553.91,873.29c-11.76-7.29-5.69-36.07,9.39-44.48,7.9-4.41,21.56-.08,25.55,8.1,2.5,5.12,6.58,17.29,6.58,19.63,0,10.75-31,23.27-41.52,16.75Zm22.45-11.58c11.15-5.28,11.32-8.93.95-20.93-6.38-7.38-16.41-2-20.58,11.06-4.08,12.75,4.47,17,19.63,9.87Zm-38.62-46.3c-13.43-4.07-17.56-20.5-9.55-38,8.62-18.83,23.85-25.49,37.54-16.43a45,45,0,0,0,10.13,4.8c16.69,4.83,13.79,35.4-4.21,44.53-9.85,5-26.17,7.44-33.91,5.1Zm22.89-11.3c17-5.26,25.56-32.26,9.2-29.13-2.51.48-3.85-.06-5.31-2.15-9.4-13.41-31.68.92-31.68,20.37,0,12.21,10.39,16.29,27.79,10.92ZM209.12,941.76c11.81-4.47,16.47-9.59,20.34-22.35,7.4-24.35,9.32-25.82,36.9-28.1,24.13-2,24.12-2,10.51-21.26-3.79-5.38-7.51-12.25-8.27-15.27-1.12-4.44-2-5.61-4.7-6.14-15.12-3-37.94-5.18-66.51-6.37-16.66-.7-38.85-2.59-45.18-3.85-11.68-2.33-23.69,57.08-16.12,79.75,7.63,22.84,44,34.59,73,23.59ZM520,933.47c5-1.81,9.08-3.85,9.08-4.53s-3.32-12.28-7.38-25.8-11.16-38.09-15.76-54.61c-16.3-58.39-33-115-34.87-118-1.17-1.88.95-3.42,11.08-8,17.12-7.78,49.84-16.46,129.51-34.33,58.17-13.05,109.54-26.93,129.12-34.89,10.33-4.2,13.35-4.14,14.28.28,3.83,18.17,16.94,51.64,40.58,103.58,16.85,37,27,60.32,33.32,76.85l3.57,9.26,5.35-6.09C851.5,821.7,841.69,784.1,801,695.83c-16.81-36.47-26.08-59-30.35-73.85-3.75-13-3.3-12.77-12-6.41-27,19.68-62.51,37-95,46.42-10.68,3.09-19.24,4.76-45.19,8.8-11.64,1.81-21.4,3.91-66.23,14.26-24.43,5.64-41.11,7.71-62.33,7.72-16.72,0-24.6-.71-51.3-4.71l-4.72-.71.67,6.74c.37,3.71,1.24,12.38,1.92,19.26,4.46,44.69,14.87,83.31,36.27,134.53,29.64,71,34.84,83.52,35.61,86.08,1.07,3.49.7,3.51,11.65-.47Zm12.21-25c-3.08-14-15.74-53.92-18.38-58-1.08-1.66-1.15-1.66-.69,0l11.05,39.84c10.51,37.9,14.2,46.28,8,18.2Zm288-80.86c-4.5-11.34-16.72-39.43-27.16-62.42-19-41.83-32.63-74.28-36.89-87.79-2.6-8.27-3.47-8.8-5.16-3.13-1.09,3.65-.81,4.53,2.78,8.59,2.27,2.55,5.24,8.26,6.84,13.14,4.11,12.49,15.68,41.21,28.2,69.95,6,13.77,16.51,38,23.36,53.79,14.32,33,13.43,31.29,15,29.71.78-.78-1.71-8.56-7-21.84ZM269.19,840c.91-3.62,8.21-11.24,14.68-15.32s3.81-8.2-37.27-54.11l-19.37-21.64-6.36,3.67c-13.29,7.68-26.46,20.37-43.7,42.11-10.44,13.17-25.65,36.54-24.52,37.68s20.67,3.14,40.82,4.25c39.69,2.17,45.71,2.63,56.48,4.31,16.35,2.56,18.38,2.46,19.23-1Zm47.66-29c8.07-2.45,25.16-6.43,38-8.86s23.5-4.6,23.73-4.83-3.59-10.21-8.48-22.17c-8.13-19.9-23-57.26-26.68-67.12L341.87,704l-29.37,9.89c-31.68,10.66-75.76,28.39-79.93,32.14-.28.24,3.16,4.26,7.63,8.92,13.29,13.85,25.68,28.26,50.61,58.86,4.24,5.2,4.41,5.28,7.86,3.5,1.93-1,10.12-3.83,18.18-6.27Zm86.49-17.61c8.74-1.73,20-4.27,25.11-5.63s9.58-2.47,10-2.47c1,0,.41-3.26-3.92-23.15a494.27,494.27,0,0,1-8.87-63.67l-.88-13.58-6.38.82c-11.63,1.5-58.21,12.49-69.27,16.34-2,.71,2.56,13.5,20.76,57.78,7.68,18.69,14,34.61,14,35.36,0,1.91,1.5,1.77,19.45-1.8Zm90.09-20.72a205.83,205.83,0,0,1-1.87-23.36c0-9.57-.22-10.33-2.59-10.33a17.32,17.32,0,0,1-6.26-1.91c-2-1.05-3.69-1.65-3.69-1.33s2.84,9.5,6.31,20.38,6.92,22.19,7.67,25.14c2.23,8.8,2.41,5.29.43-8.6Zm3.2-41.71c6.48-5.45,21.58-9.17,79.29-19.5,10-1.8,26.45-6.53,50.07-14.42,59.34-19.83,89.48-25.48,115.81-21.71,2.73.39,3.3-.31,5.25-6.44,4.11-13,4.15-12.95-9.6-8-6.56,2.34-23,7.3-36.61,11-23,6.3-37.86,9.89-129.83,31.4-60.07,14.06-91.69,23.16-90,25.92.92,1.49,7.84,4.66,10.32,4.74.93,0,3.31-1.31,5.28-3Zm334.8-20.22c24.4-9.7,33.32-14.53,32.55-17.61-.39-1.55-8.38-18.76-17.76-38.25-24.69-51.34-27.82-58-33.09-70.48-6.22-14.74-6-14.77-23.5,3.28l-14.89,15.36,2.46,8.83c4.55,16.34,14.92,42.44,28.13,70.78,7.21,15.49,13.41,29.15,13.78,30.36.8,2.67-.86,3,12.32-2.27Zm47.92-22.7c4.59-2.55,16.22-9.51,25.86-15.46s27.66-16.62,40-23.69c45.47-25.93,46.36-18.27-8.58-73.38l-45.51-45.64-8.62,5.71c-9.44,6.26-33.38,18.26-54.94,27.56-7.58,3.26-14,6.1-14.19,6.29-.77.67,11.24,27.21,32.28,71.29,11.49,24.1,21.63,45.64,22.52,47.88,2,5,1.09,5,11.13-.56Zm-350.27-7.93c7.91-1.43,25.94-5.35,40-8.7,31.18-7.4,41.59-9.49,59.46-11.95,106.53-14.67,181.09-82.18,203.87-184.6,8.54-38.4,8.58-45.76.22-48.92-7.43-2.81-7.12-3-5.54,3.89,7.53,32.94-42,143.07-73.36,163-3.46,2.2-10.51,7.05-15.67,10.78-19.45,14-59.19,31.23-97.22,42.07-13,3.7-26,7.6-28.89,8.67-7,2.56-22.06,5.13-48.15,8.21-11.75,1.39-27.05,3.91-34,5.61-30.33,7.39-47.45,7.4-86.51,0-50.64-9.54-74.57-19.13-105.77-42.39-27.1-20.22-35.05-30.27-35.05-44.32,0-14.73,13.85-63.89,23.93-84.94,9.13-19.07,3.67-47-12.13-62-14.35-13.65-42.66-69-46.85-91.65-3.82-20.62.63-44.53,14.9-80.09,13.61-33.92,17.94-40.77,37.49-59.4,28.34-27,45.61-34.21,66.43-27.69,38.06,11.93,74,13.39,124.36,5,60-10,77.15-20.39,87.89-53.46l2.09-6.44,9.87-3.26c28.77-9.49,68,4.75,87.56,31.83,3.1,4.28,8.25,10.67,11.45,14.21,8.42,9.31,13.1,18.73,27.82,56,16.89,42.75,18.95,53,19.44,96.88.27,23.66,1.65,35.05,5.4,44.43,10.16,25.43,30.88,48.71,47.3,53.14,2.36.64,1.43-.61-3.76-5.08-19-16.39-29.58-30.67-33.44-45.28-1.94-7.32-1.92-10.23.44-60.48,3.08-65.47-46-150.94-105.16-183.19-45-24.54-74.57-21.91-80.83,7.19-9.11,42.3-132.15,72.49-190.25,46.67-25.51-11.33-40.36-8.81-63.6,10.82C304.21,209,274.38,260.45,266.08,300c-7.18,34.26-2,63.31,19.15,107.94,30.26,63.74,32.35,74.69,21.08,110.14-21.08,66.28-18.08,77.48,30.49,113.67,55.84,41.61,128.73,60,192.29,48.41ZM998,602.1c21.29-35.74,38.58-75.51,49.33-113.45,1.46-5.17,2.92-10.33,3.25-11.47.44-1.54-.49-2.31-3.52-3-7.37-1.58-42.16-13.11-77.72-25.76-19.13-6.81-35.47-12.37-36.3-12.37-1.09,0-1.52,4.41-1.58,16-.13,28.36-7.9,47.61-26.67,66-4.2,4.12-7.65,8-7.66,8.7s18.72,19.81,41.6,42.56,43,43.21,44.75,45.45l3.13,4.07,2.66-3.28c1.46-1.8,5.39-7.86,8.73-13.47ZM288.55,541.85c1.46-5.51,4.6-15.45,7-22.09,11.14-31,8.43-51.41-12.56-94.66-16.51-34-19-39.67-22.9-52.36C240.21,308.08,275.89,213.31,336,171.17c8-5.62,8.2-4-1.9-16.74-4.64-5.87-9.63-12.31-11.1-14.33l-2.66-3.66L311.8,142c-38.56,25.13-61.58,48.84-73.65,75.87-26.11,58.44-34.77,121.44-26.3,191.38l.77,6.33,8.34,0c43.26-.17,74.52,87.37,46.38,129.87l-3.93,5.94,3.85,6.2c2.12,3.41,6.84,10.2,10.48,15.09l6.63,8.9.76-14.84c.46-8.69,1.87-19,3.42-24.84ZM265,529c15.11-40.05-22.39-119.72-48.54-103.13-5.86,3.72,17,72.35,35.32,105.91l6,11,2.37-3.58A63,63,0,0,0,265,529Zm788.65-64.44c4.64-17.25,12.43-57.08,12.43-63.61,0-3.44-.08-3.48-3.45-1.72-7.58,4-55.86,1.93-77.86-3.27-27.5-6.51-47.6-23.82-52-44.76-.7-3.32-1.29-4-2.94-3.16s-6.55,1.21-21.85,1.62c-3.29.09-8.39,5.73-8.39,9.27,0,3,3.57,10.42,18.2,37.73,4.05,7.57,8.59,18,10.08,23.1l2.7,9.33,23,7.77c12.64,4.28,39.62,13.42,59.92,20.32s37.33,12.57,37.81,12.62,1.54-2.31,2.33-5.24ZM841.19,412.74c1.79-13,1-26.73-1.54-26.73-43.3,0-60-106.69-18.29-117.15,3.94-1,4-.24-2.1-17.51-35.47-100-121.88-178.54-207.8-188.94l-7.12-.86-.7,4.52a134.43,134.43,0,0,0-2.13,20.55l-.28,7.9,15.56.32C670.28,96,724.16,139.69,760.23,211.26c21.16,42,25.61,70.41,19.85,126.78-3.05,29.92,20.49,63.77,54.7,78.63,5.68,2.47,5.54,2.55,6.43-3.92ZM361,393c5.3-6.15,6-11.79,6-46.42V314l4-8.21c4.88-9.95,13.81-20.15,32.77-37.47,26.85-24.52,28.24-35.82,6.17-50.08-24.65-15.93-55.76-5.09-82.42,28.72-18.94,24-21.2,31.19-21.6,68.32l-.29,27.54,7.7,16.49c15.76,33.76,35.51,47.73,47.6,33.68Zm698.9,1.12c2-1,3.69-2.7,3.69-3.69a4,4,0,0,1,2-2.92c9.33-5.22-1.21-70.33-13.74-84.85-21.39-24.78-94.12-29.22-105.22-6.42-29.46,60.53,5.58,98.88,91,99.63,14.41.12,19.35-.26,22.22-1.75ZM842,373.06c0-29.14-11.61-95.94-16.67-95.94-17.11,0-25.13,52.09-12,77.84C820.34,368.7,842,382.37,842,373.06Zm-366.3-127.7c13.29-5.55,21.83-22.37,14.66-28.87-14.47-13.09-39.43-2.75-37.1,15.36,1.67,13,10.66,18.43,22.44,13.51ZM484,170.14c59.41-7.91,93.65-25,93.88-47,0-3.21,5.74-14.35,9.66-18.86,3.48-4,3.79-5.18,4.51-17.44.43-7.23,1.15-16.06,1.6-19.61l.82-6.47-6.07-.91c-7-1-37.73.08-52.46,1.94-5.51.69-11.7,1.34-13.77,1.45-22.4,1.13-71.76,12.25-98.26,22.12-38.48,14.33-96.45,43.22-94.29,47,11.07,19.23,22.49,28.91,31.14,26.4,12-3.48,23.68-2.09,38.12,4.5,23.36,10.67,44.05,12.34,85.11,6.88Z"/></svg>